# xmcd CD database file generated by OrangeCD 5.2
#
# Track frame offsets:
#	150
#	14815
#	33894
#	45546
#	62477
#	81983
#	96677
#	112461
#	124800
#	141430
#	156892
#	176426
#	189454
#	203084
#	217600
#	232032
#	243258
#	256925
#	271221
#	288715
#
# Disc length: 4007 seconds
#
# Revision: 2
# Processed by: cddbd v1.5.1PL0 Copyright (c) Steve Scherf et al.
# Submitted via: OrangeCD 5.2
#
DISCID=2c0fa514
DTITLE=The Dean Brothers - Stuck On You
DYEAR=1999
DGENRE=Country
TTITLE0=Stuck On You
TTITLE1=Storyline
TTITLE2=Missin' The Missus
TTITLE3=He's Driving Me Out Of Your Mind
TTITLE4=Last Chance, Last Dance
TTITLE5=I Don't Know
TTITLE6=Tell Laura I Love Her
TTITLE7=Heads You Win, Tails I Lose
TTITLE8=Memories Are Made Of This
TTITLE9=It's Got Nothing To Do With You
TTITLE10=You're An Angel
TTITLE11=Love Me, Love Me
TTITLE12=Give, Give, Give
TTITLE13=You Never Can Tell
TTITLE14=Sorry Dear
TTITLE15=When My Little Girl Is Smiling
TTITLE16=Luther Played The Boogie
TTITLE17=Return To Sender
TTITLE18=Sea Cruise
TTITLE19=Then She Kissed Me
EXTD=
EXTT0=
EXTT1=
EXTT2=
EXTT3=
EXTT4=
EXTT5=
EXTT6=
EXTT7=
EXTT8=
EXTT9=
EXTT10=
EXTT11=
EXTT12=
EXTT13=
EXTT14=
EXTT15=
EXTT16=
EXTT17=
EXTT18=
EXTT19=
PLAYORDER=
